<svg id="logo" xmlns="http://www.w3.org/2000/svg" xmlns:xlink="http://www.w3.org/1999/xlink" width="200.263" height="80" viewBox="0 0 200.263 80">
  <defs>
    <clipPath id="clip-path">
      <rect id="Rectangle_1" data-name="Rectangle 1" width="200.263" height="80" fill="#fff"/>
    </clipPath>
  </defs>
  <g id="Group_1" data-name="Group 1" clip-path="url(#clip-path)">
    <path id="Path_1" data-name="Path 1" d="M650.395,348.477c0-3.062-.012-6.126-.119-9.186-.154-4.377-3.206-6.034-6.1-6.547a31.748,31.748,0,0,0-6.738-.475c-5.383.212-8.282,2.33-9.836,7.023a.28.28,0,0,0,.212.36c1.738.348,3.4.709,5.083.975a1.454,1.454,0,0,0,1.194-.441,5.965,5.965,0,0,1,7.575-2.236c1.358.563,1.907,1.678,1.859,3.432-.04,1.46-1.257,1.188-2.052,1.482a19.9,19.9,0,0,1-2.336.551c-2.344.555-4.733.975-7.032,1.668a7.739,7.739,0,0,0-5.527,7.3,7.2,7.2,0,0,0,3.715,6.6,9.481,9.481,0,0,0,7.426,1,40.959,40.959,0,0,0,6.029-2.563.279.279,0,0,1,.371.146,3.882,3.882,0,0,1,.272.863c.173,1.08.709,1.462,1.831,1.422,1.616-.057,3.238.057,5.109.125a.28.28,0,0,0,.261-.4c-1.741-3.743-1.2-7.445-1.2-11.1m-6.9.391c-.05.681-.1,1.334-.2,1.963a10.025,10.025,0,0,1-.262,1.228A3.76,3.76,0,0,1,642,353.7a5.462,5.462,0,0,1-.816.65q-.112.073-.227.141a6.567,6.567,0,0,1-.974.473q-.254.1-.516.177t-.527.134q-.265.056-.531.089a5.7,5.7,0,0,1-.79.044q-.13,0-.259-.01a4.273,4.273,0,0,1-1.221-.254,4.006,4.006,0,0,1-1.868-1.4q-.082-.115-.155-.236a3.46,3.46,0,0,1-.25-.5,3.5,3.5,0,0,1-.244-1.416q0-.151.02-.3a2.946,2.946,0,0,1,.857-1.849,3.617,3.617,0,0,1,1.61-.872c.883-.24,1.771-.463,2.684-.684s1.852-.441,2.837-.673q.805-.19,1.656-.393a.279.279,0,0,1,.342.3c-.058.6-.1,1.184-.138,1.745" transform="translate(-559.761 -296.817)" fill="#fff"/>
    <path id="Path_2" data-name="Path 2" d="M326.489,325.417c-1.235-5.254-4.594-8.217-9.743-9.193a24.106,24.106,0,0,0-10.605.319c-4.172,1.075-7.215,3.437-8.72,7.54a20.819,20.819,0,0,0-.935,9.05c.616,6.828,3.745,10.749,9.79,12.062a23.706,23.706,0,0,0,12.062-.5,11.209,11.209,0,0,0,7.886-7.823,22.064,22.064,0,0,0,.265-11.453m-10.363,12.5a13.262,13.262,0,0,1-1.4,2.97,4.112,4.112,0,0,1-4.083,2.032,3.665,3.665,0,0,1-3.4-2.971,44.586,44.586,0,0,1-1.024-7.712,23.78,23.78,0,0,1,1.466-9.755,8.664,8.664,0,0,1,1.469-2.437,3.986,3.986,0,0,1,6.808,1,31.825,31.825,0,0,1,1.227,4.291.261.261,0,0,1,.009.068c.047,4.623.173,8.637-1.072,12.517" transform="translate(-264.766 -282.109)" fill="#fff"/>
    <path id="Path_3" data-name="Path 3" d="M1412.1,342.435a.28.28,0,0,0,.267-.3,6.6,6.6,0,0,0-2.986-5.252,15.68,15.68,0,0,0-13.415-1.963,6.692,6.692,0,0,0-2.441,11.406,14.946,14.946,0,0,0,3.594,2.153c2.177,1.023,4.464,1.819,6.606,2.905a2.983,2.983,0,0,1,1.438,2c.109,1.064-.746,1.8-1.846,2.047a6.746,6.746,0,0,1-1.483.223c-3.231-.021-5.847-.949-6.49-4.469a.279.279,0,0,0-.272-.232h-5.991a.278.278,0,0,0-.256.383,21.115,21.115,0,0,0,1.67,3.856c2.424,3.65,6.27,4.629,10.313,5.008a11.442,11.442,0,0,0,7.788-1.636c3.729-2.505,4.846-9.169-.433-11.833-1.7-.858-3.438-1.639-5.165-2.439-1.5-.7-3.067-1.273-4.49-2.1a2.213,2.213,0,0,1-.981-1.764,2.342,2.342,0,0,1,1.48-1.386,6.081,6.081,0,0,1,7.452,3.475.275.275,0,0,0,.263.165l5.379-.241" transform="translate(-1240.705 -298.554)" fill="#fff"/>
    <path id="Path_4" data-name="Path 4" d="M200.262,78.157a.28.28,0,0,1-.3.279c-9.395-.536-18.4-2.934-27.359-5.643-7.2-2.176-14.405-4.361-21.716-6.09-8.915-2.108-17.932-1.5-26.718.785-9.8,2.551-19.449,5.68-29.2,8.412-5.11,1.431-10.276,2.707-15.475,3.764A20.372,20.372,0,0,1,66.732,77.7c-4.178-1.948-8.253-4.133-12.293-6.358A22.881,22.881,0,0,0,41.572,68.4c-3.183.213-6.377.264-9.685.625a.278.278,0,0,0-.113.513,6.7,6.7,0,0,0,1.541.776c5.185,1.55,10.39,3.029,15.587,4.537q4.386,1.273,8.768,2.562a.277.277,0,0,1-.135.538c-2.786-.588-5.6-1.072-8.346-1.807-7.409-1.984-14.824-3.962-22.167-6.174a28.839,28.839,0,0,0-20.029.861c-.923.384-1.89.665-2.84.981-.077.026-.186-.044-.4-.1,3.768-2.437,7.642-4.327,12.137-4.8a.277.277,0,0,0,.125-.506c-1.974-1.313-3.975-2.59-5.887-3.988a25.526,25.526,0,0,1-7.586-7.839A19.78,19.78,0,0,1,7.867,29.1c7.369-5.587,15.76-8.969,24.54-11.475,11.824-3.375,23.946-5.066,36.166-6.179,23.174-2.11,46.4-1.458,69.62-1.441h1.669a.28.28,0,0,0,.261-.378L136.631.378A.28.28,0,0,1,136.937,0c5.67.937,10.463,3.18,13.206,8.353a.279.279,0,0,0,.353.128c3.243-1.358,6.181-2.907,9.309-3.75a70.747,70.747,0,0,1,9.576-1.359.277.277,0,0,1,.3.361c-1.187,3.472-3.569,5.788-5.957,8.431a.278.278,0,0,0,.205.463c7.69.146,13.353,3.958,18.883,8.808a.278.278,0,0,1-.216.485c-2.535-.287-4.815-.547-7.095-.8-2.347-.263-4.694-.52-7.344-.813a.278.278,0,0,0-.221.479c3.551,3.337,7.23,6.27,8.9,11.292a.279.279,0,0,1-.326.356c-2.583-.559-4.838-.99-7.057-1.563-4.368-1.128-8.685-2.466-13.075-3.5-4.216-.992-4.27-.885-6.335,2.9-2.013,3.691-4.175,7.321-5.9,11.146-2.386,5.3-1.86,10.905-.774,16.418.429,2.181,2.168,3.484,4.257,4.09,3.322.963,6.737,1.631,10.012,2.725,8.232,2.749,16.4,5.692,24.608,8.509a73.812,73.812,0,0,0,17.762,4.064.276.276,0,0,1,.254.275ZM136.453,18.194c0-.531,0-.5-.008-1.035a17.6,17.6,0,0,0-3.4-.833c-5.1-.47-10.206-1.034-15.318-1.124a308.507,308.507,0,0,0-54.207,3.88,150.09,150.09,0,0,0-30.728,7.8c-5.784,2.24-11.306,4.956-15.873,9.314-6.174,5.892-6.849,13.643-1.76,20.458,4.232,5.667,10.153,7.953,16.924,8.517,4.705.392,9.418.7,14.128,1.032,6.95.5,13.131,3.163,18.924,6.826A16.962,16.962,0,0,0,76.82,75.547a139.91,139.91,0,0,0,15.379-2.8c10.058-2.567,20.009-5.552,30.041-8.227,2.729-.727,5.576-1.009,8.389-1.475a.28.28,0,0,0,.222-.356,29.925,29.925,0,0,1-1.127-3.975c-.967-6.066.446-11.754,3.008-17.213a52.569,52.569,0,0,1,9.143-12.809c1.078-1.186,2.054-2.464,3.06-3.716l-.5-.948-19.205,1.5a.28.28,0,0,1-.259-.427c2.812-4.565,7.272-5.548,11.483-6.906" transform="translate(0 0)" fill="#fff"/>
    <path id="Path_5" data-name="Path 5" d="M901.909,345.611l6.447-1.053a.234.234,0,0,1,.238.111,15.136,15.136,0,0,0,1.667,2.689c1.655,1.777,6.744,2.044,8.557.4a3.11,3.11,0,0,0,.941-2.385,2.815,2.815,0,0,0-1.744-1.665c-2.693-.886-5.482-1.479-8.173-2.369a13.669,13.669,0,0,1-4.472-2.149,7.629,7.629,0,0,1,2.794-13.2,19.92,19.92,0,0,1,12.453.114,8.11,8.11,0,0,1,5.462,5.957.233.233,0,0,1-.188.288l-6.122,1a.23.23,0,0,1-.231-.1A6.75,6.75,0,0,0,910.7,330.7a2.706,2.706,0,0,0-1.331,1.759c-.077.459.586,1.34,1.111,1.548,1.853.737,3.79,1.261,5.692,1.875,2.181.7,4.392,1.331,6.533,2.14,5.48,2.072,5.284,9.159,2.122,12.229a11.135,11.135,0,0,1-6.236,3.22c-4.07.6-8.112.609-11.85-1.426a9.544,9.544,0,0,1-5.017-6.145.233.233,0,0,1,.188-.285" transform="translate(-805.558 -290.389)" fill="#fff"/>
  </g>
</svg>
