<svg xmlns:dc="http://purl.org/dc/elements/1.1/" xmlns:cc="http://creativecommons.org/ns#" xmlns:rdf="http://www.w3.org/1999/02/22-rdf-syntax-ns#" xmlns:svg="http://www.w3.org/2000/svg" xmlns="http://www.w3.org/2000/svg" xmlns:sodipodi="http://sodipodi.sourceforge.net/DTD/sodipodi-0.dtd" xmlns:inkscape="http://www.inkscape.org/namespaces/inkscape" version="1.1" x="0px" y="0px" viewBox="0 0 100 125"><g transform="translate(0,-952.36218)"><path style="" d="m 25.387655,961.71876 -5.740387,7.92641 16.10312,0 c 1.668604,0.0721 13.287617,0.8284 17.438093,8.7107 l -27.900949,0 -5.757074,7.92642 35.076432,0 c -0.008,0.15422 -0.01933,0.2836 -0.03337,0.43387 0,0 -0.163716,17.35964 -31.78906,14.35094 l 0,3.7547 0.03337,4.0716 34.108577,37.129 12.982619,0 0,-1.652 -32.723542,-36.8286 0,-0.5173 c 0,0 25.755567,0.374 30.02022,-20.60871 0,0 -0.0016,-0.0411 0.01666,-0.1335 l 10.813289,0 5.740387,-7.92642 -17.020916,0 c -0.641001,-2.90454 -1.95021,-6.10864 -4.522224,-8.7107 l 15.93625,0 5.740387,-7.92641 -58.521909,0 z" fill="#000000" fill-rule="evenodd" stroke="none"/></g><text x="0" y="115" fill="#000000" font-size="5px" font-weight="bold" font-family="'Helvetica Neue', Helvetica, Arial-Unicode, Arial, Sans-serif">Created by Dalpat Prajapati</text><text x="0" y="120" fill="#000000" font-size="5px" font-weight="bold" font-family="'Helvetica Neue', Helvetica, Arial-Unicode, Arial, Sans-serif">from the Noun Project</text></svg>